<mxfile host="app.diagrams.net" modified="2024-04-03T19:17:39.736Z" agent="Mozilla/5.0 (Windows NT 10.0; Win64; x64) AppleWebKit/537.36 (KHTML, like Gecko) Chrome/120.0.0.0 YaBrowser/24.1.0.0 Safari/537.36" etag="4urD8c_3oKOCapPrQF9h" version="24.2.2" type="device">
  <diagram name="Page-1" id="FeLuHqMS68gYHYWkLC42">
    <mxGraphModel dx="1431" dy="821" grid="1" gridSize="10" guides="1" tooltips="1" connect="1" arrows="1" fold="1" page="1" pageScale="1" pageWidth="850" pageHeight="1100" math="0" shadow="0">
      <root>
        <mxCell id="0" />
        <mxCell id="1" parent="0" />
        <mxCell id="ICP9bJcg-K-e2DvkJ-tD-7" value="frame" style="shape=umlFrame;whiteSpace=wrap;html=1;rounded=1;shadow=0;comic=0;labelBackgroundColor=none;strokeWidth=1;fontFamily=Verdana;fontSize=12;align=center;container=0;fillColor=none;" vertex="1" parent="1">
          <mxGeometry x="175" y="280" width="590" height="540" as="geometry" />
        </mxCell>
        <mxCell id="ICP9bJcg-K-e2DvkJ-tD-1" value="Авторизация" style="rounded=1;whiteSpace=wrap;html=1;arcSize=24;fillColor=#ffffc0;strokeColor=#ff0000;shadow=0;comic=0;labelBackgroundColor=none;fontFamily=Verdana;fontSize=12;fontColor=#000000;align=center;" vertex="1" parent="1">
          <mxGeometry x="235" y="650" width="120" height="60" as="geometry" />
        </mxCell>
        <mxCell id="ICP9bJcg-K-e2DvkJ-tD-2" value="Регистрация" style="rounded=1;whiteSpace=wrap;html=1;arcSize=24;fillColor=#ffffc0;strokeColor=#ff0000;shadow=0;comic=0;labelBackgroundColor=none;fontFamily=Verdana;fontSize=12;fontColor=#000000;align=center;" vertex="1" parent="1">
          <mxGeometry x="210" y="460" width="120" height="60" as="geometry" />
        </mxCell>
        <mxCell id="ICP9bJcg-K-e2DvkJ-tD-3" value="Создает новый аккаунт" style="rounded=1;whiteSpace=wrap;html=1;arcSize=24;fillColor=#ffffc0;strokeColor=#ff0000;shadow=0;comic=0;labelBackgroundColor=none;fontFamily=Verdana;fontSize=12;fontColor=#000000;align=center;" vertex="1" parent="1">
          <mxGeometry x="535" y="560" width="120" height="60" as="geometry" />
        </mxCell>
        <mxCell id="ICP9bJcg-K-e2DvkJ-tD-4" style="html=1;labelBackgroundColor=none;endArrow=open;endSize=8;strokeColor=#ff0000;fontFamily=Verdana;fontSize=12;align=left;" edge="1" parent="1" source="ICP9bJcg-K-e2DvkJ-tD-2" target="ICP9bJcg-K-e2DvkJ-tD-5">
          <mxGeometry relative="1" as="geometry" />
        </mxCell>
        <mxCell id="ICP9bJcg-K-e2DvkJ-tD-5" value="Позволяет сохранять пользовательские данные" style="rounded=1;whiteSpace=wrap;html=1;arcSize=24;fillColor=#ffffc0;strokeColor=#ff0000;shadow=0;comic=0;labelBackgroundColor=none;fontFamily=Verdana;fontSize=12;fontColor=#000000;align=center;" vertex="1" parent="1">
          <mxGeometry x="445" y="330" width="120" height="60" as="geometry" />
        </mxCell>
        <mxCell id="ICP9bJcg-K-e2DvkJ-tD-6" value="Требует логин и пароль" style="rounded=1;whiteSpace=wrap;html=1;arcSize=24;fillColor=#ffffc0;strokeColor=#ff0000;shadow=0;comic=0;labelBackgroundColor=none;fontFamily=Verdana;fontSize=12;fontColor=#000000;align=center;" vertex="1" parent="1">
          <mxGeometry x="595" y="425" width="120" height="60" as="geometry" />
        </mxCell>
        <mxCell id="ICP9bJcg-K-e2DvkJ-tD-8" style="html=1;labelBackgroundColor=none;endArrow=open;endSize=8;strokeColor=#ff0000;fontFamily=Verdana;fontSize=12;align=left;exitX=0.5;exitY=0.5;exitDx=0;exitDy=0;exitPerimeter=0;" edge="1" parent="1" source="ICP9bJcg-K-e2DvkJ-tD-13" target="ICP9bJcg-K-e2DvkJ-tD-2">
          <mxGeometry relative="1" as="geometry">
            <mxPoint x="245" y="470" as="sourcePoint" />
          </mxGeometry>
        </mxCell>
        <mxCell id="ICP9bJcg-K-e2DvkJ-tD-9" style="html=1;labelBackgroundColor=none;endArrow=open;endSize=8;strokeColor=#ff0000;fontFamily=Verdana;fontSize=12;align=left;" edge="1" parent="1" source="ICP9bJcg-K-e2DvkJ-tD-2" target="ICP9bJcg-K-e2DvkJ-tD-3">
          <mxGeometry relative="1" as="geometry" />
        </mxCell>
        <mxCell id="ICP9bJcg-K-e2DvkJ-tD-10" style="html=1;entryX=0.25;entryY=0;labelBackgroundColor=none;endArrow=open;endSize=8;strokeColor=#ff0000;fontFamily=Verdana;fontSize=12;align=left;entryDx=0;entryDy=0;" edge="1" parent="1" source="ICP9bJcg-K-e2DvkJ-tD-13" target="ICP9bJcg-K-e2DvkJ-tD-1">
          <mxGeometry relative="1" as="geometry" />
        </mxCell>
        <mxCell id="ICP9bJcg-K-e2DvkJ-tD-11" style="html=1;entryX=0;entryY=0.5;labelBackgroundColor=none;endArrow=open;endSize=8;strokeColor=#ff0000;fontFamily=Verdana;fontSize=12;align=left;" edge="1" parent="1" source="ICP9bJcg-K-e2DvkJ-tD-2" target="ICP9bJcg-K-e2DvkJ-tD-6">
          <mxGeometry relative="1" as="geometry" />
        </mxCell>
        <mxCell id="ICP9bJcg-K-e2DvkJ-tD-12" style="html=1;labelBackgroundColor=none;endArrow=open;endSize=8;strokeColor=#ff0000;fontFamily=Verdana;fontSize=12;align=left;exitX=0.25;exitY=1;" edge="1" parent="1" source="ICP9bJcg-K-e2DvkJ-tD-1" target="ICP9bJcg-K-e2DvkJ-tD-14">
          <mxGeometry relative="1" as="geometry">
            <mxPoint x="435" y="835" as="sourcePoint" />
            <mxPoint x="355.66666666666674" y="815" as="targetPoint" />
          </mxGeometry>
        </mxCell>
        <mxCell id="ICP9bJcg-K-e2DvkJ-tD-13" value="Actor" style="shape=umlActor;verticalLabelPosition=bottom;verticalAlign=top;html=1;outlineConnect=0;" vertex="1" parent="1">
          <mxGeometry x="85" y="530" width="30" height="60" as="geometry" />
        </mxCell>
        <mxCell id="ICP9bJcg-K-e2DvkJ-tD-14" value="Верифицирует данные" style="rounded=1;whiteSpace=wrap;html=1;arcSize=24;fillColor=#ffffc0;strokeColor=#ff0000;shadow=0;comic=0;labelBackgroundColor=none;fontFamily=Verdana;fontSize=12;fontColor=#000000;align=center;" vertex="1" parent="1">
          <mxGeometry x="375" y="730" width="120" height="60" as="geometry" />
        </mxCell>
        <mxCell id="ICP9bJcg-K-e2DvkJ-tD-15" value="Предоставляет доступ к личным данным" style="rounded=1;whiteSpace=wrap;html=1;arcSize=24;fillColor=#ffffc0;strokeColor=#ff0000;shadow=0;comic=0;labelBackgroundColor=none;fontFamily=Verdana;fontSize=12;fontColor=#000000;align=center;" vertex="1" parent="1">
          <mxGeometry x="555" y="680" width="120" height="60" as="geometry" />
        </mxCell>
        <mxCell id="ICP9bJcg-K-e2DvkJ-tD-16" style="html=1;labelBackgroundColor=none;endArrow=open;endSize=8;strokeColor=#ff0000;fontFamily=Verdana;fontSize=12;align=left;" edge="1" parent="1" source="ICP9bJcg-K-e2DvkJ-tD-14" target="ICP9bJcg-K-e2DvkJ-tD-15">
          <mxGeometry relative="1" as="geometry">
            <mxPoint x="375" y="830" as="sourcePoint" />
            <mxPoint x="275" y="720" as="targetPoint" />
          </mxGeometry>
        </mxCell>
      </root>
    </mxGraphModel>
  </diagram>
</mxfile>
